<svg id="_30_construction_site_outline" data-name="#30_construction_site_outline" xmlns="http://www.w3.org/2000/svg" viewBox="0 0 400 300" width="406" height="306" class="illustration styles_illustrationTablet__1DWOa"><path d="M173.2,224.48H153.88a1,1,0,0,1-1-1V109.73a1,1,0,0,1,1-1H173.2a1,1,0,0,1,1,1V223.48A1,1,0,0,1,173.2,224.48Zm-18.32-2H172.2V110.73H154.88Z" fill="#093f68"></path><path d="M244.55,110.73H128.2a1,1,0,0,1-1-1V90.42a1,1,0,0,1,1-1H261.13a1,1,0,0,1,.76,1.65l-16.58,19.31A1,1,0,0,1,244.55,110.73Zm-115.35-2H244.09L259,91.42H129.2Z" fill="#093f68"></path><path d="M173.2,91.42H153.88A1,1,0,0,1,153,90l9.66-23.19a1,1,0,0,1,1.84,0L174.12,90a1,1,0,0,1-.92,1.39Zm-17.82-2H171.7l-8.16-19.59Z" fill="#093f68"></path><path d="M261.13,91.42l-.23,0L163.73,68.3l-35,23a1,1,0,1,1-1.1-1.67L163,66.39a1,1,0,0,1,.78-.14l97.59,23.2a1,1,0,0,1-.23,2Z" fill="#093f68"></path><path d="M166.11,110.73a1,1,0,0,1-.71-.3L147.16,91.85l-18.25,18.58a1,1,0,0,1-1.43-1.4l19-19.31a1,1,0,0,1,1.43,0l19,19.31a1,1,0,0,1,0,1.41A1,1,0,0,1,166.11,110.73Z" fill="#093f68"></path><path d="M153.88,148.65a1,1,0,0,1-.71-.3,1,1,0,0,1,0-1.42l18.59-18.24-18.59-18.25a1,1,0,0,1,1.4-1.43l19.32,19a1,1,0,0,1,.3.72,1,1,0,0,1-.3.71l-19.32,19A1,1,0,0,1,153.88,148.65Z" fill="#093f68"></path><path d="M153.88,186.56a1,1,0,0,1-.7-1.71l18.59-18.25-18.59-18.24a1,1,0,0,1,1.4-1.43l19.32,19a1,1,0,0,1,.3.71,1,1,0,0,1-.3.72l-19.32,19A1,1,0,0,1,153.88,186.56Z" fill="#093f68"></path><path d="M153.88,224.48a1,1,0,0,1-.7-1.71l18.59-18.25-18.59-18.24a1,1,0,0,1,0-1.42,1,1,0,0,1,1.41,0l19.32,19a1,1,0,0,1,.3.71,1,1,0,0,1-.3.72l-19.32,18.95A1,1,0,0,1,153.88,224.48Z" fill="#093f68"></path><path d="M167.41,110.73a1,1,0,0,1-.7-.29,1,1,0,0,1,0-1.41l19-19.31a1,1,0,0,1,.71-.3h0a1,1,0,0,1,.72.3L206,109a1,1,0,1,1-1.42,1.4L186.37,91.85l-18.24,18.58A1,1,0,0,1,167.41,110.73Z" fill="#093f68"></path><path d="M244.55,110.73a1,1,0,0,1-.72-.3L225.59,91.85l-18.25,18.58a1,1,0,0,1-1.42-1.4l19-19.31a1,1,0,0,1,1.42,0l19,19.31a1,1,0,0,1,0,1.41A1,1,0,0,1,244.55,110.73Z" fill="#093f68"></path><path d="M216.14,155.1a1,1,0,0,1-.71-1.71l15-14.73a1,1,0,0,1,1.4,0l15,14.73a1,1,0,0,1-1.4,1.42l-14.29-14-14.29,14A1,1,0,0,1,216.14,155.1Z" fill="#093f68"></path><rect x="173.19" y="110.37" width="18.99" height="32.35" fill="#f56132"></rect><path d="M192.18,143.72h-19a1,1,0,0,1-1-1V110.37a1,1,0,0,1,1-1h19a1,1,0,0,1,1,1v32.35A1,1,0,0,1,192.18,143.72Zm-18-2h17V111.37h-17Z" fill="#093f68"></path><path d="M231,141.09a3.46,3.46,0,0,1-1.79-.45,3.5,3.5,0,0,1-1.49-3.26,4,4,0,0,1,2.45-4v-23a1,1,0,0,1,2,0v23.78a1,1,0,0,1-.93,1c-.24,0-1.52.26-1.52,2.23,0,.56.1,1.28.53,1.55.74.45,2.38-.12,3-.45a1,1,0,0,1,1.34.43,1,1,0,0,1-.43,1.35A7.83,7.83,0,0,1,231,141.09Z" fill="#093f68"></path><rect x="212.17" y="153.26" width="37.31" height="10.94" fill="#68e1fd"></rect><path d="M249.48,165.2H212.17a1,1,0,0,1-1-1V153.26a1,1,0,0,1,1-1h37.31a1,1,0,0,1,1,1V164.2A1,1,0,0,1,249.48,165.2Zm-36.31-2h35.31v-8.94H213.17Z" fill="#093f68"></path><rect x="142.46" y="223.48" width="40.23" height="10.32" rx="4.07" fill="#f56132"></rect><path d="M178.62,234.8H146.53a5.08,5.08,0,0,1-5.07-5.07v-2.18a5.07,5.07,0,0,1,5.07-5.07h32.09a5.08,5.08,0,0,1,5.07,5.07v2.18A5.08,5.08,0,0,1,178.62,234.8Zm-32.09-10.32a3.08,3.08,0,0,0-3.07,3.07v2.18a3.08,3.08,0,0,0,3.07,3.07h32.09a3.08,3.08,0,0,0,3.07-3.07v-2.18a3.08,3.08,0,0,0-3.07-3.07Z" fill="#093f68"></path><rect x="180.36" y="116" width="11.83" height="12.68" fill="#ffbc0e"></rect><path d="M192.18,129.69H180.36a1,1,0,0,1-1-1V116a1,1,0,0,1,1-1h11.82a1,1,0,0,1,1,1v12.69A1,1,0,0,1,192.18,129.69Zm-10.82-2h9.82V117h-9.82Z" fill="#093f68"></path><polygon points="249.48 189.56 249.48 209.51 230.82 209.51 212.17 209.51 212.17 233.8 268.13 233.8 268.13 189.56 249.48 189.56" fill="#68e1fd"></polygon><path d="M268.13,234.8h-56a1,1,0,0,1-1-1V209.51a1,1,0,0,1,1-1h36.31V189.57a1,1,0,0,1,1-1h18.65a1,1,0,0,1,1,1V233.8A1,1,0,0,1,268.13,234.8Zm-55-2h54V190.57H250.48v18.94a1,1,0,0,1-1,1H213.17Z" fill="#093f68"></path><path d="M268.13,210.51a1,1,0,0,1-1-1V170.13a1,1,0,0,1,2,0v39.38A1,1,0,0,1,268.13,210.51Z" fill="#093f68"></path><path d="M249.48,210.51a1,1,0,0,1-1-1V170.13a1,1,0,0,1,2,0v39.38A1,1,0,0,1,249.48,210.51Z" fill="#093f68"></path><path d="M230.82,210.51a1,1,0,0,1-1-1V175.38a1,1,0,0,1,2,0v34.13A1,1,0,0,1,230.82,210.51Z" fill="#093f68"></path><path d="M249.48,210.51a1,1,0,0,1-1-1V170.13a1,1,0,0,1,2,0v39.38A1,1,0,0,1,249.48,210.51Z" fill="#093f68"></path><path d="M230.82,210.51a1,1,0,0,1-1-1v-29.3a1,1,0,1,1,2,0v29.3A1,1,0,0,1,230.82,210.51Z" fill="#093f68"></path><path d="M212.17,210.51a1,1,0,0,1-1-1v-29.3a1,1,0,0,1,2,0v29.3A1,1,0,0,1,212.17,210.51Z" fill="#093f68"></path><path d="M249.48,190.57H212.17a1,1,0,0,1,0-2h37.31a1,1,0,0,1,0,2Z" fill="#093f68"></path><rect x="233.96" y="221.43" width="12.37" height="12.37" fill="#093f68"></rect><path d="M246.34,234.8H234a1,1,0,0,1-1-1V221.43a1,1,0,0,1,1-1h12.38a1,1,0,0,1,1,1V233.8A1,1,0,0,1,246.34,234.8Zm-11.38-2h10.38V222.43H235Z" fill="#093f68"></path><path d="M293.77,234.8H106.23a1,1,0,0,1,0-2H293.77a1,1,0,0,1,0,2Z" fill="#093f68"></path></svg>