<svg id="_160_data_arranging_outline" data-name="#160_data_arranging_outline" xmlns="http://www.w3.org/2000/svg" viewBox="0 0 400 300" width="406" height="306" class="illustration styles_illustrationTablet__1DWOa"><path d="M297.15,96.85v106.3a6.36,6.36,0,0,1-6.36,6.36H108.1a6.36,6.36,0,0,1-6.36-6.36V87.45a9,9,0,0,1,9-9h71.42a8.93,8.93,0,0,1,6,2.36l10.52,9.64h92.1A6.36,6.36,0,0,1,297.15,96.85Z" fill="#f7f7f7"></path><path d="M290.79,210.51H108.1a7.37,7.37,0,0,1-7.36-7.36V87.45a10,10,0,0,1,10-10h71.42a9.92,9.92,0,0,1,6.73,2.62l10.23,9.38h91.71a7.37,7.37,0,0,1,7.36,7.36v106.3A7.37,7.37,0,0,1,290.79,210.51ZM110.7,79.49a8,8,0,0,0-8,8v115.7a5.36,5.36,0,0,0,5.36,5.36H290.79a5.36,5.36,0,0,0,5.36-5.36V96.85a5.36,5.36,0,0,0-5.36-5.36h-92.1a1,1,0,0,1-.68-.26l-10.52-9.64a7.85,7.85,0,0,0-5.37-2.1Z" fill="#093f68"></path><path d="M164.48,181.33h-38a2,2,0,0,1-2-2V144.3l9.29-10h30.7a2,2,0,0,1,2,2v43.1A2,2,0,0,1,164.48,181.33Z" fill="#68e1fd"></path><path d="M164.48,182.33h-38a3,3,0,0,1-3-3V144.3a1,1,0,0,1,.27-.68l9.29-10a1,1,0,0,1,.73-.32h30.7a3,3,0,0,1,3,3v43.1A3,3,0,0,1,164.48,182.33Zm-39-37.63v34.67a1,1,0,0,0,1,1h38a1,1,0,0,0,1-1v-43.1a1,1,0,0,0-1-1H134.22Z" fill="#093f68"></path><polygon points="124.49 144.3 133.64 144.3 133.64 134.31 124.49 144.3" fill="#f7f7f7"></polygon><path d="M133.64,145.3h-9.15a1,1,0,0,1-.91-.59,1,1,0,0,1,.17-1.08l9.16-10a1,1,0,0,1,1.73.68v10A1,1,0,0,1,133.64,145.3Zm-6.88-2h5.88v-6.42Z" fill="#093f68"></path><path d="M158.84,152.76H132.38a1,1,0,0,1,0-2h26.46a1,1,0,1,1,0,2Z" fill="#fff"></path><path d="M158.84,159.27H132.38a1,1,0,0,1,0-2h26.46a1,1,0,0,1,0,2Z" fill="#fff"></path><path d="M158.84,165.78H132.38a1,1,0,0,1,0-2h26.46a1,1,0,0,1,0,2Z" fill="#fff"></path><path d="M151.24,172.29H132.38a1,1,0,0,1,0-2h18.86a1,1,0,0,1,0,2Z" fill="#fff"></path><path d="M159.41,174.51h-38a2,2,0,0,1-2-2V137.48l9.3-10h30.69a2,2,0,0,1,2,2v43.1A2,2,0,0,1,159.41,174.51Z" fill="#68e1fd"></path><path d="M159.41,175.51h-38a3,3,0,0,1-3-3V137.48a1,1,0,0,1,.27-.68l9.29-10a1,1,0,0,1,.74-.32h30.69a3,3,0,0,1,3,3v43.1A3,3,0,0,1,159.41,175.51Zm-39-37.63v34.67a1,1,0,0,0,1,1h38a1,1,0,0,0,1-1v-43.1a1,1,0,0,0-1-1H129.15Z" fill="#093f68"></path><polygon points="119.42 137.48 128.57 137.48 128.57 127.49 119.42 137.48" fill="#f7f7f7"></polygon><path d="M128.58,138.48h-9.16a1,1,0,0,1-.73-1.67l9.15-10a1,1,0,0,1,1.74.68v10A1,1,0,0,1,128.58,138.48Zm-6.88-2h5.88v-6.42Z" fill="#093f68"></path><path d="M153.77,145.94H127.31a1,1,0,0,1,0-2h26.46a1,1,0,1,1,0,2Z" fill="#fff"></path><path d="M153.77,152.45H127.31a1,1,0,0,1,0-2h26.46a1,1,0,1,1,0,2Z" fill="#fff"></path><path d="M153.77,159H127.31a1,1,0,1,1,0-2h26.46a1,1,0,0,1,0,2Z" fill="#fff"></path><path d="M146.17,165.47H127.31a1,1,0,1,1,0-2h18.86a1,1,0,0,1,0,2Z" fill="#fff"></path><path d="M154.35,167.69h-38a2,2,0,0,1-2-2V130.66l9.29-10h30.7a2,2,0,0,1,2,2v43.1A2,2,0,0,1,154.35,167.69Z" fill="#fff"></path><path d="M154.35,168.69h-38a3,3,0,0,1-3-3V130.66a1,1,0,0,1,.26-.68l9.3-10a1,1,0,0,1,.73-.32h30.7a3,3,0,0,1,3,3v43.1A3,3,0,0,1,154.35,168.69Zm-39-37.63v34.67a1,1,0,0,0,1,1h38a1,1,0,0,0,1-1v-43.1a1,1,0,0,0-1-1H124.08Z" fill="#093f68"></path><polygon points="114.36 130.66 123.51 130.66 123.51 120.67 114.36 130.66" fill="#68e1fd"></polygon><path d="M123.51,131.66h-9.15a1,1,0,0,1-.74-1.67l9.15-10a1,1,0,0,1,1.1-.25,1,1,0,0,1,.64.93v10A1,1,0,0,1,123.51,131.66Zm-6.88-2h5.88v-6.42Z" fill="#093f68"></path><path d="M148.71,139.12H122.24a1,1,0,0,1,0-2h26.47a1,1,0,1,1,0,2Z" fill="#dfeaef"></path><path d="M148.71,145.63H122.24a1,1,0,0,1,0-2h26.47a1,1,0,1,1,0,2Z" fill="#dfeaef"></path><path d="M148.71,152.14H122.24a1,1,0,0,1,0-2h26.47a1,1,0,1,1,0,2Z" fill="#dfeaef"></path><path d="M141.1,158.65H122.24a1,1,0,1,1,0-2H141.1a1,1,0,0,1,0,2Z" fill="#dfeaef"></path><path d="M223.84,181.33h-38a2,2,0,0,1-2-2V144.3l9.29-10h30.7a2,2,0,0,1,2,2v43.1A2,2,0,0,1,223.84,181.33Z" fill="#ffbc0e"></path><path d="M223.84,182.33h-38a3,3,0,0,1-3-3V144.3a1,1,0,0,1,.27-.68l9.29-10a1,1,0,0,1,.73-.32h30.7a3,3,0,0,1,3,3v43.1A3,3,0,0,1,223.84,182.33Zm-39-37.63v34.67a1,1,0,0,0,1,1h38a1,1,0,0,0,1-1v-43.1a1,1,0,0,0-1-1H193.58Z" fill="#093f68"></path><polygon points="183.85 144.3 193 144.3 193 134.31 183.85 144.3" fill="#f7f7f7"></polygon><path d="M193,145.3h-9.15a1,1,0,0,1-.73-1.67l9.15-10a1,1,0,0,1,1.73.68v10A1,1,0,0,1,193,145.3Zm-6.88-2H192v-6.42Z" fill="#093f68"></path><path d="M218.2,152.76H191.74a1,1,0,0,1,0-2H218.2a1,1,0,0,1,0,2Z" fill="#fff"></path><path d="M218.2,159.27H191.74a1,1,0,0,1,0-2H218.2a1,1,0,0,1,0,2Z" fill="#fff"></path><path d="M218.2,165.78H191.74a1,1,0,0,1,0-2H218.2a1,1,0,0,1,0,2Z" fill="#fff"></path><path d="M210.6,172.29H191.74a1,1,0,0,1,0-2H210.6a1,1,0,0,1,0,2Z" fill="#fff"></path><path d="M218.77,174.51h-38a2,2,0,0,1-2-2V137.48l9.3-10h30.69a2,2,0,0,1,2,2v43.1A2,2,0,0,1,218.77,174.51Z" fill="#ffbc0e"></path><path d="M218.77,175.51h-38a3,3,0,0,1-3-3V137.48a1,1,0,0,1,.26-.68l9.29-10a1,1,0,0,1,.74-.32h30.69a3,3,0,0,1,3,3v43.1A3,3,0,0,1,218.77,175.51Zm-39-37.63v34.67a1,1,0,0,0,1,1h38a1,1,0,0,0,1-1v-43.1a1,1,0,0,0-1-1H188.51Z" fill="#093f68"></path><polygon points="178.78 137.48 187.94 137.48 187.94 127.49 178.78 137.48" fill="#f7f7f7"></polygon><path d="M187.94,138.48h-9.15a1,1,0,0,1-.74-1.67l9.15-10a1,1,0,0,1,1.74.68v10A1,1,0,0,1,187.94,138.48Zm-6.88-2h5.88v-6.42Z" fill="#093f68"></path><path d="M213.13,145.94H186.67a1,1,0,0,1,0-2h26.46a1,1,0,0,1,0,2Z" fill="#fff"></path><path d="M213.13,152.45H186.67a1,1,0,0,1,0-2h26.46a1,1,0,0,1,0,2Z" fill="#fff"></path><path d="M213.13,159H186.67a1,1,0,0,1,0-2h26.46a1,1,0,0,1,0,2Z" fill="#fff"></path><path d="M205.53,165.47H186.67a1,1,0,0,1,0-2h18.86a1,1,0,0,1,0,2Z" fill="#fff"></path><path d="M213.71,167.69h-38a2,2,0,0,1-2-2V130.66l9.29-10h30.7a2,2,0,0,1,2,2v43.1A2,2,0,0,1,213.71,167.69Z" fill="#fff"></path><path d="M213.71,168.69h-38a3,3,0,0,1-3-3V130.66A1,1,0,0,1,173,130l9.3-10a1,1,0,0,1,.73-.32h30.7a3,3,0,0,1,3,3v43.1A3,3,0,0,1,213.71,168.69Zm-39-37.63v34.67a1,1,0,0,0,1,1h38a1,1,0,0,0,1-1v-43.1a1,1,0,0,0-1-1H183.44Z" fill="#093f68"></path><polygon points="173.72 130.66 182.87 130.66 182.87 120.67 173.72 130.66" fill="#ffbc0e"></polygon><path d="M182.87,131.66h-9.15A1,1,0,0,1,173,130l9.15-10a1,1,0,0,1,1.1-.25,1,1,0,0,1,.64.93v10A1,1,0,0,1,182.87,131.66Zm-6.88-2h5.88v-6.42Z" fill="#093f68"></path><path d="M208.07,139.12H181.6a1,1,0,0,1,0-2h26.47a1,1,0,0,1,0,2Z" fill="#dfeaef"></path><path d="M208.07,145.63H181.6a1,1,0,0,1,0-2h26.47a1,1,0,0,1,0,2Z" fill="#dfeaef"></path><path d="M208.07,152.14H181.6a1,1,0,0,1,0-2h26.47a1,1,0,0,1,0,2Z" fill="#dfeaef"></path><path d="M200.46,158.65H181.6a1,1,0,0,1,0-2h18.86a1,1,0,0,1,0,2Z" fill="#dfeaef"></path><path d="M283.2,181.33h-38a2,2,0,0,1-2-2V144.3l9.3-10H283.2a2,2,0,0,1,2,2v43.1A2,2,0,0,1,283.2,181.33Z" fill="#f56132"></path><path d="M283.2,182.33h-38a3,3,0,0,1-3-3V144.3a1,1,0,0,1,.27-.68l9.29-10a1,1,0,0,1,.73-.32h30.7a3,3,0,0,1,3,3v43.1A3,3,0,0,1,283.2,182.33Zm-39-37.63v34.67a1,1,0,0,0,1,1h38a1,1,0,0,0,1-1v-43.1a1,1,0,0,0-1-1H252.94Z" fill="#093f68"></path><polygon points="243.21 144.3 252.36 144.3 252.36 134.31 243.21 144.3" fill="#f7f7f7"></polygon><path d="M252.36,145.3h-9.15a1,1,0,0,1-.73-1.67l9.15-10a1,1,0,0,1,1.73.68v10A1,1,0,0,1,252.36,145.3Zm-6.87-2h5.87v-6.42Z" fill="#093f68"></path><path d="M277.56,152.76H251.1a1,1,0,0,1,0-2h26.46a1,1,0,0,1,0,2Z" fill="#fff"></path><path d="M277.56,159.27H251.1a1,1,0,0,1,0-2h26.46a1,1,0,0,1,0,2Z" fill="#fff"></path><path d="M277.56,165.78H251.1a1,1,0,0,1,0-2h26.46a1,1,0,0,1,0,2Z" fill="#fff"></path><path d="M270,172.29H251.1a1,1,0,0,1,0-2H270a1,1,0,0,1,0,2Z" fill="#fff"></path><path d="M278.14,174.51h-38a2,2,0,0,1-2-2V137.48l9.29-10h30.7a2,2,0,0,1,2,2v43.1A2,2,0,0,1,278.14,174.51Z" fill="#f56132"></path><path d="M278.14,175.51h-38a3,3,0,0,1-3-3V137.48a1,1,0,0,1,.26-.68l9.3-10a1,1,0,0,1,.73-.32h30.7a3,3,0,0,1,3,3v43.1A3,3,0,0,1,278.14,175.51Zm-39-37.63v34.67a1,1,0,0,0,1,1h38a1,1,0,0,0,1-1v-43.1a1,1,0,0,0-1-1H247.87Z" fill="#093f68"></path><polygon points="238.15 137.48 247.3 137.48 247.3 127.49 238.15 137.48" fill="#f7f7f7"></polygon><path d="M247.3,138.48h-9.15a1,1,0,0,1-.74-1.67l9.15-10a1,1,0,0,1,1.74.68v10A1,1,0,0,1,247.3,138.48Zm-6.88-2h5.88v-6.42Z" fill="#093f68"></path><path d="M272.5,145.94H246a1,1,0,0,1,0-2H272.5a1,1,0,0,1,0,2Z" fill="#fff"></path><path d="M272.5,152.45H246a1,1,0,0,1,0-2H272.5a1,1,0,0,1,0,2Z" fill="#fff"></path><path d="M272.5,159H246a1,1,0,0,1,0-2H272.5a1,1,0,0,1,0,2Z" fill="#fff"></path><path d="M264.89,165.47H246a1,1,0,0,1,0-2h18.86a1,1,0,0,1,0,2Z" fill="#fff"></path><path d="M273.07,167.69H235a2,2,0,0,1-2-2V130.66l9.29-10h30.7a2,2,0,0,1,2,2v43.1A2,2,0,0,1,273.07,167.69Z" fill="#fff"></path><path d="M273.07,168.69H235a3,3,0,0,1-3-3V130.66a1,1,0,0,1,.26-.68l9.3-10a1,1,0,0,1,.73-.32h30.7a3,3,0,0,1,3,3v43.1A3,3,0,0,1,273.07,168.69Zm-39-37.63v34.67a1,1,0,0,0,1,1h38a1,1,0,0,0,1-1v-43.1a1,1,0,0,0-1-1H242.8Z" fill="#093f68"></path><polygon points="233.08 130.66 242.23 130.66 242.23 120.67 233.08 130.66" fill="#f56132"></polygon><path d="M242.23,131.66h-9.15a1,1,0,0,1-.74-1.67l9.15-10a1,1,0,0,1,1.1-.25,1,1,0,0,1,.64.93v10A1,1,0,0,1,242.23,131.66Zm-6.88-2h5.88v-6.42Z" fill="#093f68"></path><path d="M267.43,139.12H241a1,1,0,0,1,0-2h26.47a1,1,0,0,1,0,2Z" fill="#dfeaef"></path><path d="M267.43,145.63H241a1,1,0,0,1,0-2h26.47a1,1,0,0,1,0,2Z" fill="#dfeaef"></path><path d="M267.43,152.14H241a1,1,0,0,1,0-2h26.47a1,1,0,0,1,0,2Z" fill="#dfeaef"></path><path d="M259.83,158.65H241a1,1,0,0,1,0-2h18.87a1,1,0,0,1,0,2Z" fill="#dfeaef"></path><path d="M297.15,96.85V101H101.74V87.45a9,9,0,0,1,9-9h71.42a8.93,8.93,0,0,1,6,2.36l10.52,9.64h92.1A6.36,6.36,0,0,1,297.15,96.85Z" fill="#68e1fd"></path><path d="M297.15,102H101.74a1,1,0,0,1-1-1V87.45a10,10,0,0,1,10-10h71.42a9.92,9.92,0,0,1,6.73,2.62l10.23,9.38h91.71a7.37,7.37,0,0,1,7.36,7.36V101A1,1,0,0,1,297.15,102Zm-194.41-2H296.15V96.85a5.36,5.36,0,0,0-5.36-5.36h-92.1a1,1,0,0,1-.68-.26l-10.52-9.64a7.85,7.85,0,0,0-5.37-2.1H110.7a8,8,0,0,0-8,8Z" fill="#093f68"></path><path d="M160.67,196.5H130.41a1,1,0,1,1,0-2h30.26a1,1,0,0,1,0,2Z" fill="#dfeaef"></path><path d="M218.13,196.5H187.87a1,1,0,0,1,0-2h30.26a1,1,0,0,1,0,2Z" fill="#dfeaef"></path><path d="M275.59,196.5H245.33a1,1,0,0,1,0-2h30.26a1,1,0,0,1,0,2Z" fill="#dfeaef"></path></svg>