<svg xmlns="http://www.w3.org/2000/svg" viewBox="0 0 400 300" width="406" height="306" class="illustration styles_illustrationTablet__1DWOa"><g id="_463_information_carousel_outline" data-name="#463_information_carousel_outline"><path d="M94.42,97.62H305.58a0,0,0,0,1,0,0V210.69a6.32,6.32,0,0,1-6.32,6.32H100.73a6.32,6.32,0,0,1-6.32-6.32V97.62A0,0,0,0,1,94.42,97.62Z" fill="#fff"></path><path d="M299.27,218H100.73a7.32,7.32,0,0,1-7.31-7.31V97.62a1,1,0,0,1,1-1H305.58a1,1,0,0,1,1,1V210.69A7.32,7.32,0,0,1,299.27,218ZM95.42,98.62V210.69a5.31,5.31,0,0,0,5.31,5.31H299.27a5.31,5.31,0,0,0,5.31-5.31V98.62Z" fill="#093f68"></path><path d="M100.73,83H299.27a6.32,6.32,0,0,1,6.32,6.32v8.3a0,0,0,0,1,0,0H94.42a0,0,0,0,1,0,0v-8.3A6.32,6.32,0,0,1,100.73,83Z" fill="#68e1fd"></path><path d="M305.58,98.62H94.42a1,1,0,0,1-1-1V89.31A7.32,7.32,0,0,1,100.73,82H299.27a7.32,7.32,0,0,1,7.31,7.31v8.31A1,1,0,0,1,305.58,98.62Zm-210.16-2H304.58V89.31A5.31,5.31,0,0,0,299.27,84H100.73a5.31,5.31,0,0,0-5.31,5.31Z" fill="#093f68"></path><rect x="105.58" y="125.55" width="58.51" height="48.52" fill="#68e1fd"></rect><path d="M164.09,175.06H105.58a1,1,0,0,1-1-1V125.55a1,1,0,0,1,1-1h58.51a1,1,0,0,1,1,1v48.51A1,1,0,0,1,164.09,175.06Zm-57.51-2h56.51V126.55H106.58Z" fill="#093f68"></path><path d="M144.81,174.06H105.58V169.6l17.28-24.09a2.16,2.16,0,0,1,3.57.09l12.65,19.57Z" fill="#fff"></path><path d="M144.81,175.06H105.58a1,1,0,0,1-1-1V169.6a1,1,0,0,1,.18-.58l17.29-24.09a3.1,3.1,0,0,1,2.64-1.32,3.16,3.16,0,0,1,2.58,1.44l18.38,28.47a1,1,0,0,1-.84,1.54Zm-38.23-2H143l-17.39-26.92a1.14,1.14,0,0,0-1-.53,1.23,1.23,0,0,0-1,.48l-17.09,23.83Z" fill="#093f68"></path><path d="M164.09,169.09v5H132.7l6.38-8.89,10-13.91a2.16,2.16,0,0,1,3.57.09Z" fill="#fff"></path><path d="M164.09,175.06H132.7a1,1,0,0,1-.89-.54,1,1,0,0,1,.07-1l16.37-22.8a3.15,3.15,0,0,1,5.22.13l11.46,17.74a1,1,0,0,1,.16.54v5A1,1,0,0,1,164.09,175.06Zm-29.44-2h28.44v-3.67l-11.3-17.5a1.17,1.17,0,0,0-.95-.53,1.12,1.12,0,0,0-1,.49Z" fill="#093f68"></path><circle cx="142.13" cy="138.32" r="5.14" fill="#fff"></circle><path d="M142.13,144.46a6.14,6.14,0,1,1,6.15-6.14A6.15,6.15,0,0,1,142.13,144.46Zm0-10.28a4.14,4.14,0,1,0,4.15,4.14A4.15,4.15,0,0,0,142.13,134.18Z" fill="#093f68"></path><rect x="105.58" y="174.06" width="58.51" height="13.33" fill="#fff"></rect><path d="M164.09,188.39H105.58a1,1,0,0,1-1-1V174.06a1,1,0,0,1,1-1h58.51a1,1,0,0,1,1,1v13.33A1,1,0,0,1,164.09,188.39Zm-57.51-2h56.51V175.06H106.58Z" fill="#093f68"></path><path d="M156.89,181.73H112.78a1,1,0,0,1,0-2h44.11a1,1,0,0,1,0,2Z" fill="#dfeaef"></path><rect x="171.45" y="125.55" width="58.51" height="48.52" fill="#68e1fd"></rect><path d="M230,175.06H171.45a1,1,0,0,1-1-1V125.55a1,1,0,0,1,1-1H230a1,1,0,0,1,1,1v48.51A1,1,0,0,1,230,175.06Zm-57.52-2H229V126.55H172.45Z" fill="#093f68"></path><path d="M210.69,174.06H171.45V169.6l17.29-24.09a2.15,2.15,0,0,1,3.56.09L205,165.17Z" fill="#fff"></path><path d="M210.69,175.06H171.45a1,1,0,0,1-1-1V169.6a1,1,0,0,1,.19-.58l17.28-24.09a3.16,3.16,0,0,1,5.22.12l18.39,28.47a1,1,0,0,1-.84,1.54Zm-38.24-2h36.41l-17.4-26.92a1.13,1.13,0,0,0-.94-.53,1.21,1.21,0,0,0-1,.48l-17.1,23.83Z" fill="#093f68"></path><path d="M230,169.09v5H198.58l6.37-8.89,10-13.91a2.16,2.16,0,0,1,3.57.09Z" fill="#fff"></path><path d="M230,175.06H198.58a1,1,0,0,1-.89-.54,1,1,0,0,1,.07-1l16.37-22.8a3.15,3.15,0,0,1,5.22.13l11.46,17.74a1,1,0,0,1,.16.54v5A1,1,0,0,1,230,175.06Zm-29.45-2H229v-3.67l-11.3-17.5a1.18,1.18,0,0,0-.95-.53,1.14,1.14,0,0,0-1,.49Z" fill="#093f68"></path><circle cx="208.01" cy="138.32" r="5.14" fill="#fff"></circle><path d="M208,144.46a6.14,6.14,0,1,1,6.14-6.14A6.15,6.15,0,0,1,208,144.46Zm0-10.28a4.14,4.14,0,1,0,4.14,4.14A4.15,4.15,0,0,0,208,134.18Z" fill="#093f68"></path><rect x="171.45" y="174.06" width="58.51" height="13.33" fill="#fff"></rect><path d="M230,188.39H171.45a1,1,0,0,1-1-1V174.06a1,1,0,0,1,1-1H230a1,1,0,0,1,1,1v13.33A1,1,0,0,1,230,188.39Zm-57.52-2H229V175.06H172.45Z" fill="#093f68"></path><path d="M222.76,181.73h-44.1a1,1,0,0,1,0-2h44.1a1,1,0,0,1,0,2Z" fill="#dfeaef"></path><rect x="237.33" y="125.55" width="58.51" height="48.52" fill="#68e1fd"></rect><path d="M295.84,175.06H237.33a1,1,0,0,1-1-1V125.55a1,1,0,0,1,1-1h58.51a1,1,0,0,1,1,1v48.51A1,1,0,0,1,295.84,175.06Zm-57.51-2h56.51V126.55H238.33Z" fill="#093f68"></path><path d="M276.57,174.06H237.33V169.6l17.29-24.09a2.15,2.15,0,0,1,3.56.09l12.65,19.57Z" fill="#fff"></path><path d="M276.57,175.06H237.33a1,1,0,0,1-1-1V169.6a1,1,0,0,1,.19-.58l17.28-24.09a3.07,3.07,0,0,1,2.65-1.32,3.15,3.15,0,0,1,2.57,1.44l18.39,28.47a1,1,0,0,1-.84,1.54Zm-38.24-2h36.41l-17.4-26.92a1.13,1.13,0,0,0-.94-.53,1.2,1.2,0,0,0-1,.48l-17.1,23.83Z" fill="#093f68"></path><path d="M295.84,169.09v5H264.45l6.38-8.89,10-13.91a2.15,2.15,0,0,1,3.56.09Z" fill="#fff"></path><path d="M295.84,175.06H264.45a1,1,0,0,1-.81-1.58L280,150.68a3.15,3.15,0,0,1,5.22.13l11.46,17.74a1,1,0,0,1,.16.54v5A1,1,0,0,1,295.84,175.06Zm-29.44-2h28.44v-3.67l-11.3-17.5a1.13,1.13,0,0,0-.94-.53,1.09,1.09,0,0,0-1,.49Z" fill="#093f68"></path><circle cx="273.89" cy="138.32" r="5.14" fill="#fff"></circle><path d="M273.89,144.46a6.14,6.14,0,1,1,6.14-6.14A6.14,6.14,0,0,1,273.89,144.46Zm0-10.28a4.14,4.14,0,1,0,4.14,4.14A4.15,4.15,0,0,0,273.89,134.18Z" fill="#093f68"></path><rect x="237.33" y="174.06" width="58.51" height="13.33" fill="#fff"></rect><path d="M295.84,188.39H237.33a1,1,0,0,1-1-1V174.06a1,1,0,0,1,1-1h58.51a1,1,0,0,1,1,1v13.33A1,1,0,0,1,295.84,188.39Zm-57.51-2h56.51V175.06H238.33Z" fill="#093f68"></path><path d="M288.64,181.73h-44.1a1,1,0,0,1,0-2h44.1a1,1,0,0,1,0,2Z" fill="#dfeaef"></path><polyline points="206.7 197.72 211.39 202.41 206.7 207.09" fill="#fff"></polyline><path d="M206.7,208.09a1,1,0,0,1-.71-.29,1,1,0,0,1,0-1.41l4-4-4-4a1,1,0,0,1,0-1.41,1,1,0,0,1,1.42,0l4.68,4.69a1,1,0,0,1,0,1.41l-4.68,4.69A1,1,0,0,1,206.7,208.09Z" fill="#093f68"></path><polyline points="194.72 197.72 190.03 202.41 194.72 207.09" fill="#fff"></polyline><path d="M194.72,208.09a1,1,0,0,1-.71-.29l-4.68-4.69a1,1,0,0,1,0-1.41L194,197a1,1,0,0,1,1.42,0,1,1,0,0,1,0,1.41l-4,4,4,4a1,1,0,0,1,0,1.41A1,1,0,0,1,194.72,208.09Z" fill="#093f68"></path><path d="M181,111.76H105.58a1,1,0,0,1,0-2H181a1,1,0,0,1,0,2Z" fill="#093f68"></path><circle cx="107.95" cy="90.08" r="2.37" fill="#f56132"></circle><path d="M108,93.45a3.37,3.37,0,1,1,3.37-3.37A3.37,3.37,0,0,1,108,93.45Zm0-4.74a1.37,1.37,0,1,0,1.37,1.37A1.37,1.37,0,0,0,108,88.71Z" fill="#093f68"></path><circle cx="118.1" cy="90.08" r="2.37" fill="#ffbc0e"></circle><path d="M118.1,93.45a3.37,3.37,0,1,1,3.37-3.37A3.37,3.37,0,0,1,118.1,93.45Zm0-4.74a1.37,1.37,0,1,0,1.37,1.37A1.37,1.37,0,0,0,118.1,88.71Z" fill="#093f68"></path><circle cx="128.25" cy="90.08" r="2.37" fill="#70cc40"></circle><path d="M128.25,93.45a3.37,3.37,0,1,1,3.37-3.37A3.37,3.37,0,0,1,128.25,93.45Zm0-4.74a1.37,1.37,0,1,0,1.37,1.37A1.37,1.37,0,0,0,128.25,88.71Z" fill="#093f68"></path></g></svg>