<svg xmlns="http://www.w3.org/2000/svg" viewBox="0 0 400 300" width="406" height="306" class="illustration styles_illustrationTablet__1DWOa"><g id="_246_landing_page_outline" data-name="#246_landing_page_outline"><path d="M280.69,88.78V185.4a8.42,8.42,0,0,1-8.42,8.42H133a8.43,8.43,0,0,1-6.14-2.66,8.33,8.33,0,0,1-2.28-5.76V88.78A8.41,8.41,0,0,1,133,80.37H272.27A8.41,8.41,0,0,1,280.69,88.78Z" fill="#68e1fd"></path><path d="M272.27,194.82H133a9.43,9.43,0,0,1-9.42-9.42V88.78A9.42,9.42,0,0,1,133,79.37H272.27a9.43,9.43,0,0,1,9.42,9.41V185.4A9.44,9.44,0,0,1,272.27,194.82ZM133,81.37a7.42,7.42,0,0,0-7.42,7.41V185.4a7.33,7.33,0,0,0,2,5.07,7.46,7.46,0,0,0,5.41,2.35H272.27a7.43,7.43,0,0,0,7.42-7.42V88.78a7.42,7.42,0,0,0-7.42-7.41Z" fill="#093f68"></path><rect x="132.94" y="88.11" width="139.33" height="82.53" fill="#093f68"></rect><path d="M272.27,171.64H132.94a1,1,0,0,1-1-1V88.11a1,1,0,0,1,1-1H272.27a1,1,0,0,1,1,1v82.53A1,1,0,0,1,272.27,171.64Zm-138.33-2H271.27V89.11H133.94Z" fill="#093f68"></path><path d="M221,193.82H184.23s3.37,10.83-10.37,23h57.5C217.61,204.65,221,193.82,221,193.82Z" fill="#68e1fd"></path><path d="M231.36,217.83h-57.5a1,1,0,0,1-.94-.64,1,1,0,0,1,.28-1.11c13.11-11.62,10.1-21.86,10.07-22a1,1,0,0,1,.15-.89,1,1,0,0,1,.81-.41H221a1,1,0,0,1,.81.41,1,1,0,0,1,.15.89c-.13.42-3,10.41,10.07,22a1,1,0,0,1,.27,1.11A1,1,0,0,1,231.36,217.83Zm-55-2h52.44c-9.59-9.46-9.53-17.86-9.07-21H185.45C185.91,198,186,206.37,176.39,215.83Z" fill="#093f68"></path><circle cx="202.61" cy="181.39" r="3.65" fill="#093f68"></circle><path d="M202.61,186.05a4.66,4.66,0,1,1,4.65-4.66A4.66,4.66,0,0,1,202.61,186.05Zm0-7.31a2.66,2.66,0,1,0,2.65,2.65A2.65,2.65,0,0,0,202.61,178.74Z" fill="#093f68"></path><rect x="166.17" y="216.83" width="72.88" height="5.44" rx="2.72" fill="#68e1fd"></rect><path d="M236.33,223.28H168.89a3.73,3.73,0,0,1,0-7.45h67.44a3.73,3.73,0,0,1,0,7.45Zm-67.44-5.45a1.73,1.73,0,0,0,0,3.45h67.44a1.73,1.73,0,0,0,0-3.45Z" fill="#093f68"></path><rect x="115.31" y="76.84" width="139.33" height="82.52" fill="#68e1fd"></rect><path d="M254.64,160.36H115.31a1,1,0,0,1-1-1V76.84a1,1,0,0,1,1-1H254.64a1,1,0,0,1,1,1v82.52A1,1,0,0,1,254.64,160.36Zm-138.33-2H253.64V77.84H116.31Z" fill="#093f68"></path><path d="M254.64,76.84v82.52h-61.1a70.82,70.82,0,0,1,0-82.52Z" fill="#fff"></path><path d="M254.64,160.36h-61.1a1,1,0,0,1-.81-.42,71.8,71.8,0,0,1,0-83.68,1,1,0,0,1,.81-.42h61.12a1,1,0,0,1,1,1v82.52A1,1,0,0,1,254.64,160.36Zm-60.59-2h59.59V77.84H194a69.83,69.83,0,0,0,0,80.52Z" fill="#093f68"></path><path d="M150,97.38h-20.5a1,1,0,0,1,0-2H150a1,1,0,0,1,0,2Z" fill="#093f68"></path><path d="M163.27,126.3H129.46a1,1,0,0,1,0-2h33.81a1,1,0,0,1,0,2Z" fill="#093f68"></path><path d="M163.27,116.83H129.46a1,1,0,0,1,0-2h33.81a1,1,0,0,1,0,2Z" fill="#093f68"></path><rect x="129.46" y="136.98" width="33.8" height="7.71" rx="3.86" fill="#ffbc0e"></rect><path d="M159.41,145.69H133.32a4.86,4.86,0,1,1,0-9.71h26.09a4.86,4.86,0,1,1,0,9.71ZM133.32,138a2.86,2.86,0,1,0,0,5.71h26.09a2.86,2.86,0,1,0,0-5.71Z" fill="#093f68"></path><circle cx="124.24" cy="84.31" r="2.38" fill="#f56132"></circle><path d="M124.24,81.94a2.38,2.38,0,1,1-2.37,2.37,2.37,2.37,0,0,1,2.37-2.37m0-1.5a3.88,3.88,0,1,0,3.88,3.87,3.88,3.88,0,0,0-3.88-3.87Z" fill="#093f68"></path><circle cx="134.22" cy="84.31" r="2.38" fill="#ffbc0e"></circle><path d="M134.22,81.94a2.38,2.38,0,1,1-2.38,2.37,2.37,2.37,0,0,1,2.38-2.37m0-1.5a3.88,3.88,0,1,0,3.87,3.87,3.88,3.88,0,0,0-3.87-3.87Z" fill="#093f68"></path><circle cx="144.19" cy="84.31" r="2.38" fill="#70cc40"></circle><path d="M144.19,81.94a2.38,2.38,0,1,1-2.38,2.37,2.38,2.38,0,0,1,2.38-2.37m0-1.5a3.88,3.88,0,1,0,3.88,3.87,3.88,3.88,0,0,0-3.88-3.87Z" fill="#093f68"></path><path d="M185,129a1,1,0,0,1-.66-.24,1,1,0,0,1-.1-1.41l22.93-26.47a1.08,1.08,0,0,1,.78-.34,1,1,0,0,1,.77.38l20.56,26.18a1,1,0,0,1-.17,1.41,1,1,0,0,1-1.4-.17l-19.82-25.23-22.14,25.55A1,1,0,0,1,185,129Z" fill="#dfeaef"></path><path d="M251,126.3a1,1,0,0,1-.8-.41l-13-17.41-13.33,12.41a1,1,0,1,1-1.36-1.46l14.14-13.17a1,1,0,0,1,.78-.27,1,1,0,0,1,.71.4l13.66,18.31a1,1,0,0,1-.2,1.4A1,1,0,0,1,251,126.3Z" fill="#dfeaef"></path><path d="M244.73,87.69H225.8a1,1,0,0,1,0-2h18.93a1,1,0,0,1,0,2Z" fill="#dfeaef"></path><path d="M267.39,155.46l-25.3-6.7a.86.86,0,0,0-1.05,1.05l6.7,25.3a.86.86,0,0,0,1.44.39l5.49-5.49,11.13,11.13a.86.86,0,0,0,1.22,0l6.4-6.4a.86.86,0,0,0,0-1.22l-11.13-11.13,5.49-5.49A.86.86,0,0,0,267.39,155.46Z" fill="#fff"></path><path d="M266.41,182.39a1.86,1.86,0,0,1-1.31-.54l-10.43-10.43-4.78,4.79a1.87,1.87,0,0,1-1.8.48,1.84,1.84,0,0,1-1.31-1.32l-6.71-25.31a1.86,1.86,0,0,1,2.28-2.27l25.3,6.71h0a1.86,1.86,0,0,1,.84,3.11l-4.78,4.78,10.42,10.42a1.88,1.88,0,0,1,0,2.64l-6.4,6.4A1.88,1.88,0,0,1,266.41,182.39ZM254.67,169a1,1,0,0,1,.71.29l11,11,6.21-6.2-11-11a1,1,0,0,1,0-1.41l5.31-5.32-24.84-6.59,6.59,24.84L254,169.3A1,1,0,0,1,254.67,169Zm12.47-12.58Z" fill="#093f68"></path><path d="M282.32,223.28H117.68a1,1,0,0,1,0-2H282.32a1,1,0,0,1,0,2Z" fill="#093f68"></path></g></svg>