<svg xmlns="http://www.w3.org/2000/svg" viewBox="0 0 400 300" width="406" height="306" class="illustration styles_illustrationTablet__1DWOa"><g id="_247_landing_page_outline" data-name="#247_landing_page_outline"><rect x="182.75" y="126.59" width="95.02" height="88.93" transform="translate(460.53 342.1) rotate(-180)" fill="#68e1fd"></rect><path d="M277.78,216.52h-95a1,1,0,0,1-1-1V126.58a1,1,0,0,1,1-1h95a1,1,0,0,1,1,1v88.94A1,1,0,0,1,277.78,216.52Zm-94-2h93V127.58h-93Z" fill="#093f68"></path><line x1="277.78" y1="135.61" x2="200.5" y2="135.61" fill="#68e1fd"></line><path d="M277.78,136.61H200.5a1,1,0,0,1,0-2h77.28a1,1,0,0,1,0,2Z" fill="#093f68"></path><path d="M264.73,75.49V219.93a7,7,0,0,1-7,7H142.23a7,7,0,0,1-7-7V75.48a10,10,0,0,1,10-10H254.7A10,10,0,0,1,264.73,75.49Z" fill="#fff"></path><path d="M257.74,227.92H142.23a8,8,0,0,1-8-8V75.48a11,11,0,0,1,11-11H254.7a11,11,0,0,1,11,11V219.93A8,8,0,0,1,257.74,227.92ZM145.25,66.46a9,9,0,0,0-9,9V219.93a6,6,0,0,0,6,6H257.74a6,6,0,0,0,6-6V75.49a9,9,0,0,0-9-9Z" fill="#093f68"></path><path d="M264.73,75.48V79.9H135.24V75.48a10,10,0,0,1,10-10H254.7A10,10,0,0,1,264.73,75.48Z" fill="#fff"></path><path d="M264.73,80.9H135.24a1,1,0,0,1-1-1V75.48a11,11,0,0,1,11-11H254.7a11,11,0,0,1,11,11V79.9A1,1,0,0,1,264.73,80.9Zm-128.49-2H263.73V75.48a9,9,0,0,0-9-9H145.26a9,9,0,0,0-9,9Z" fill="#093f68"></path><rect x="135.24" y="79.9" width="129.49" height="38.22" fill="#68e1fd"></rect><path d="M264.73,119.12H135.24a1,1,0,0,1-1-1V79.9a1,1,0,0,1,1-1H264.73a1,1,0,0,1,1,1v38.22A1,1,0,0,1,264.73,119.12Zm-128.49-2H263.73V80.9H136.24Z" fill="#093f68"></path><circle cx="168.21" cy="143.98" r="14.06" fill="#f56132"></circle><path d="M168.21,159A15.06,15.06,0,1,1,183.27,144,15.08,15.08,0,0,1,168.21,159Zm0-28.11a13.06,13.06,0,1,0,13.06,13A13.07,13.07,0,0,0,168.21,130.93Z" fill="#093f68"></path><path d="M245.81,134.55H196.7a1,1,0,0,1,0-2h49.11a1,1,0,0,1,0,2Z" fill="#dfeaef"></path><path d="M245.81,145H196.7a1,1,0,0,1,0-2h49.11a1,1,0,0,1,0,2Z" fill="#dfeaef"></path><path d="M230.27,155.41h-9a1,1,0,0,1,0-2h9a1,1,0,0,1,0,2Z" fill="#dfeaef"></path><path d="M213.48,155.41H196.7a1,1,0,0,1,0-2h16.78a1,1,0,0,1,0,2Z" fill="#dfeaef"></path><circle cx="231.76" cy="189.2" r="14.06" fill="#ffbc0e"></circle><path d="M231.76,204.26a15.06,15.06,0,1,1,15.05-15.06A15.08,15.08,0,0,1,231.76,204.26Zm0-28.12a13.06,13.06,0,1,0,13.05,13.06A13.08,13.08,0,0,0,231.76,176.14Z" fill="#093f68"></path><path d="M203.27,179.77H154.15a1,1,0,0,1,0-2h49.12a1,1,0,0,1,0,2Z" fill="#dfeaef"></path><path d="M203.27,190.2H154.15a1,1,0,0,1,0-2h49.12a1,1,0,1,1,0,2Z" fill="#dfeaef"></path><path d="M190.32,200.63H154.15a1,1,0,1,1,0-2h36.17a1,1,0,0,1,0,2Z" fill="#dfeaef"></path><polygon points="135.24 118.12 178.71 86.57 205.09 108.81 228.09 90.1 264.73 118.12 135.24 118.12" fill="#70cc40"></polygon><path d="M264.73,119.12H135.24a1,1,0,0,1-.59-1.81l43.48-31.55a1,1,0,0,1,1.23,0l25.74,21.7,22.36-18.19a1,1,0,0,1,1.24,0l36.64,28a1,1,0,0,1-.61,1.79Zm-126.41-2H261.78L228.11,91.37l-22.39,18.22a1,1,0,0,1-1.28,0L178.67,87.84Z" fill="#093f68"></path><path d="M210.77,114.56a1,1,0,0,1-.64-.24l-5.68-4.74a1,1,0,1,1,1.28-1.54l5.69,4.75a1,1,0,0,1,.12,1.41A1,1,0,0,1,210.77,114.56Z" fill="#093f68"></path><circle cx="145.66" cy="72.01" r="2.02" fill="#f56132"></circle><path d="M145.66,70a2,2,0,1,1-2,2,2,2,0,0,1,2-2m0-1.5A3.53,3.53,0,1,0,149.19,72a3.53,3.53,0,0,0-3.53-3.52Z" fill="#093f68"></path><circle cx="154.15" cy="72.01" r="2.02" fill="#ffbc0e"></circle><path d="M154.15,70a2,2,0,1,1-2,2,2,2,0,0,1,2-2m0-1.5A3.53,3.53,0,1,0,157.68,72a3.53,3.53,0,0,0-3.53-3.52Z" fill="#093f68"></path><circle cx="162.64" cy="72.01" r="2.02" fill="#70cc40"></circle><path d="M162.64,70a2,2,0,1,1-2,2,2,2,0,0,1,2-2m0-1.5A3.53,3.53,0,1,0,166.17,72a3.53,3.53,0,0,0-3.53-3.52Z" fill="#093f68"></path><path d="M127.23,146.77l20.16-5.35a.69.69,0,0,1,.84.84l-5.35,20.16a.68.68,0,0,1-1.15.31l-4.37-4.37-8.87,8.86a.68.68,0,0,1-1,0l-5.09-5.09a.68.68,0,0,1,0-1l8.86-8.87-4.37-4.37A.68.68,0,0,1,127.23,146.77Z" fill="#fff"></path><path d="M128,168.43a1.67,1.67,0,0,1-1.19-.5l-5.1-5.1a1.67,1.67,0,0,1,0-2.38l8.16-8.16-3.67-3.67a1.68,1.68,0,0,1,.76-2.82h0l20.16-5.34a1.69,1.69,0,0,1,2.06,2.06l-5.34,20.16a1.68,1.68,0,0,1-2.82.76l-3.67-3.67-8.16,8.16A1.67,1.67,0,0,1,128,168.43Zm-4.66-6.79L128,166.3l8.64-8.65a1,1,0,0,1,1.42,0l4,4,5.06-19.11L128,147.59l4,4a1,1,0,0,1,.29.71,1,1,0,0,1-.29.71Z" fill="#093f68"></path><rect x="128.27" y="193.94" width="47.73" height="40.59" rx="2.33" fill="#68e1fd"></rect><path d="M173.66,235.54H130.6a3.34,3.34,0,0,1-3.33-3.34V196.28a3.34,3.34,0,0,1,3.33-3.34h43.06a3.35,3.35,0,0,1,3.34,3.34V232.2A3.35,3.35,0,0,1,173.66,235.54Zm-43.06-40.6a1.33,1.33,0,0,0-1.33,1.34V232.2a1.33,1.33,0,0,0,1.33,1.34h43.06A1.34,1.34,0,0,0,175,232.2V196.28a1.34,1.34,0,0,0-1.34-1.34Z" fill="#093f68"></path><path d="M175.25,202.67h-47a1,1,0,0,1,0-2h47a1,1,0,0,1,0,2Z" fill="#093f68"></path><path d="M167.44,213.24H136.82a1,1,0,0,1,0-2h30.62a1,1,0,0,1,0,2Z" fill="#fff"></path><path d="M160.38,223H136.82a1,1,0,0,1,0-2h23.56a1,1,0,0,1,0,2Z" fill="#fff"></path></g></svg>