<svg xmlns="http://www.w3.org/2000/svg" viewBox="0 0 400 300" width="406" height="306" class="illustration styles_illustrationTablet__1DWOa"><g id="_246_landing_page_flatline" data-name="#246_landing_page_flatline"><rect x="34.87" y="46.21" width="330.26" height="207.58" rx="8.79" fill="#fff"></rect><path d="M356.34,46.21A8.78,8.78,0,0,1,365.13,55V245a8.78,8.78,0,0,1-8.79,8.79H43.66A8.78,8.78,0,0,1,34.87,245V55a8.78,8.78,0,0,1,8.79-8.79H356.34m0-1H43.66A9.8,9.8,0,0,0,33.87,55V245a9.8,9.8,0,0,0,9.79,9.79H356.34a9.8,9.8,0,0,0,9.79-9.79V55a9.8,9.8,0,0,0-9.79-9.79Z" fill="#231f20"></path><path d="M365.13,55V245a8.78,8.78,0,0,1-8.79,8.79H235.64a165.57,165.57,0,0,1,0-207.58h120.7A8.78,8.78,0,0,1,365.13,55Z" fill="#68e1fd"></path><path d="M365.13,55V245a8.78,8.78,0,0,1-8.79,8.79H235.64a164.87,164.87,0,0,1-31.17-61.72c-.05-.17-.09-.33-.13-.5s-.09-.33-.13-.5A165.85,165.85,0,0,1,235.64,46.21h120.7A8.78,8.78,0,0,1,365.13,55Z" fill="#68e1fd"></path><path d="M268.25,191.07l-.17.5-.17.5H204.47c-.05-.17-.09-.33-.13-.5s-.09-.33-.13-.5Z" fill="#231f20"></path><path d="M308.7,123.66l-13,9.85a.46.46,0,1,1-.55-.73l13-9.85a.44.44,0,0,1,.64.09A.46.46,0,0,1,308.7,123.66Z" fill="#68e1fd"></path><path d="M296.54,161.55a.46.46,0,0,1,.07-.64L353,116.09a.46.46,0,1,1,.57.72l-56.43,44.81a.42.42,0,0,1-.28.1A.46.46,0,0,1,296.54,161.55Z" fill="#68e1fd"></path><path d="M327.66,165a.45.45,0,0,1,.08-.64l33.61-25.89a.46.46,0,0,1,.64.09.47.47,0,0,1-.08.64L328.3,165.1a.45.45,0,0,1-.64-.08Z" fill="#68e1fd"></path><path d="M278.82,180.5h86.31v17.08H274.78a2,2,0,0,1-1.59-.79,2,2,0,0,1-.31-1.75l3.86-13A2.15,2.15,0,0,1,278.82,180.5Z" fill="#68e1fd"></path><path d="M365.13,213.79v5.46H262.76c-1.46,0-3.09-1.19-3.09-2.64v-2.82Z" fill="#231f20"></path><path d="M365.13,180.5v17.08H274.78a2,2,0,0,1-1.59-.79,2,2,0,0,1-.31-1.75l.88-3,.15-.5.15-.5,2.68-9a2.15,2.15,0,0,1,2.08-1.55Z" fill="#fff"></path><path d="M365.13,180.5v17.08H274.78a2,2,0,0,1-1.59-.79,2,2,0,0,1-.31-1.75l.88-3,.15-.5.15-.5,2.68-9a2.15,2.15,0,0,1,2.08-1.55h86.31m1-1H278.82a3.13,3.13,0,0,0-3,2.27l-2.68,9-.15.49-.15.5-.88,3a3,3,0,0,0,.47,2.63,3,3,0,0,0,2.39,1.19h91.35V179.5Z" fill="#231f20"></path><path d="M365.13,176.1V177H277.72a5.32,5.32,0,0,0-.69,0,6.55,6.55,0,0,0-5.53,4.41l-3.25,9.6-.17.5-.17.5-7.25,21.4a1.34,1.34,0,0,0-.08.32v0a1.49,1.49,0,0,0,0,.19,1.68,1.68,0,0,0,1.68,1.67H365.13v.92H262.25a2.6,2.6,0,0,1-2.13-1.11,2.53,2.53,0,0,1-.45-1.35.57.57,0,0,1,0-.13,1.7,1.7,0,0,1,0-.22v0a2.58,2.58,0,0,1,.12-.56l7.15-21.11.17-.5.17-.5,3.35-9.9a7.47,7.47,0,0,1,4-4.4,4,4,0,0,1,.75-.29,7.23,7.23,0,0,1,2.32-.38Z" fill="#231f20"></path><path d="M306,211.54a1.57,1.57,0,0,1-1.25-.6,1.62,1.62,0,0,1-.31-1.33l1.59-7.22a2.57,2.57,0,0,1,2.53-2h28.11a2.57,2.57,0,0,1,2.53,2l1.59,7.21a1.61,1.61,0,0,1-1.56,1.94Z" fill="#fff"></path><path d="M338.67,202.5a2.07,2.07,0,0,0-2-1.64H308.52a2.07,2.07,0,0,0-2,1.64l-1.59,7.21a1.09,1.09,0,0,0,.22.92,1.06,1.06,0,0,0,.85.41h33.23a1.1,1.1,0,0,0,1.07-1.33Z" fill="#fff"></path><path d="M336.63,200.86a2.07,2.07,0,0,1,2,1.64l1.59,7.21a1.1,1.1,0,0,1-1.07,1.33H306a1.06,1.06,0,0,1-.85-.41,1.09,1.09,0,0,1-.22-.92l1.59-7.21a2.07,2.07,0,0,1,2-1.64h28.11m0-1H308.52a3.07,3.07,0,0,0-3,2.43l-1.59,7.2a2.12,2.12,0,0,0,.42,1.77A2.05,2.05,0,0,0,306,212h33.23a2.08,2.08,0,0,0,1.63-.78,2.11,2.11,0,0,0,.42-1.76l-1.59-7.22a3.07,3.07,0,0,0-3-2.42Z" fill="#231f20"></path><path d="M308.7,123.66l-13,9.85a.46.46,0,1,1-.55-.73l13-9.85a.44.44,0,0,1,.64.09A.46.46,0,0,1,308.7,123.66Z" fill="#231f20"></path><path d="M296.54,161.55a.46.46,0,0,1,.07-.64L353,116.09a.46.46,0,1,1,.57.72l-56.43,44.81a.42.42,0,0,1-.28.1A.46.46,0,0,1,296.54,161.55Z" fill="#231f20"></path><path d="M327.66,165a.45.45,0,0,1,.08-.64l33.61-25.89a.46.46,0,0,1,.64.09.47.47,0,0,1-.08.64L328.3,165.1a.45.45,0,0,1-.64-.08Z" fill="#231f20"></path><path d="M365.13,107.55v4.76H277.72V171.7h87.41v4.86h-89a3.87,3.87,0,0,1-.77-.08,3.59,3.59,0,0,1-2.8-3.5V111.13a3.57,3.57,0,0,1,3.57-3.58Z" fill="#231f20"></path><path d="M276.17,107.05a4.08,4.08,0,0,0-4.07,4.08V173a4.11,4.11,0,0,0,2.55,3.79,7,7,0,0,0,.69.21h0a4.38,4.38,0,0,0,.82.08h89v-1h-89A3.07,3.07,0,0,1,273.1,173V111.13a3.07,3.07,0,0,1,3.07-3.08h89v-1Z" fill="#231f20"></path><path d="M308.7,123.66l-13,9.85a.46.46,0,1,1-.55-.73l13-9.85a.44.44,0,0,1,.64.09A.46.46,0,0,1,308.7,123.66Z" fill="#68e1fd"></path><path d="M353.61,116.81l-56.43,44.81a.42.42,0,0,1-.28.1.46.46,0,0,1-.29-.81L353,116.09a.46.46,0,1,1,.57.72Z" fill="#68e1fd"></path><path d="M362,138.58a.47.47,0,0,1-.08.64L328.3,165.1a.45.45,0,0,1-.64-.08.45.45,0,0,1,.08-.64l33.61-25.89A.46.46,0,0,1,362,138.58Z" fill="#68e1fd"></path><path d="M353.61,116.81l-56.43,44.81a.42.42,0,0,1-.28.1.46.46,0,0,1-.29-.81L353,116.09a.46.46,0,1,1,.57.72Z" fill="#fff"></path><path d="M361.91,139.22,328.3,165.1a.45.45,0,0,1-.64-.08.45.45,0,0,1,.08-.64l33.61-25.89a.46.46,0,0,1,.64.09A.47.47,0,0,1,361.91,139.22Z" fill="#fff"></path><path d="M308.7,123.66l-13,9.85a.46.46,0,1,1-.55-.73l13-9.85a.44.44,0,0,1,.64.09A.46.46,0,0,1,308.7,123.66Z" fill="#fff"></path><path d="M365.13,55V66.85H34.87V55a8.78,8.78,0,0,1,8.79-8.79H356.34A8.78,8.78,0,0,1,365.13,55Z" fill="#fff"></path><path d="M356.34,46.21A8.78,8.78,0,0,1,365.13,55V66.85H34.87V55a8.78,8.78,0,0,1,8.79-8.79H356.34m0-1H43.66A9.8,9.8,0,0,0,33.87,55V67.85H366.13V55a9.8,9.8,0,0,0-9.79-9.79Z" fill="#231f20"></path><path d="M263.1,89.25H240.27a1,1,0,1,1,0-2H263.1a1,1,0,0,1,0,2Z" fill="#fff"></path><path d="M297.64,89.25H274.81a1,1,0,0,1,0-2h22.83a1,1,0,0,1,0,2Z" fill="#fff"></path><path d="M332.17,89.25H309.34a1,1,0,0,1,0-2h22.83a1,1,0,0,1,0,2Z" fill="#fff"></path><path d="M144.31,140.16H56.5a4.5,4.5,0,0,1,0-9h87.81a4.5,4.5,0,0,1,0,9Z" fill="#d1d3d4"></path><path d="M156.49,159.59H56.5a4.5,4.5,0,0,1,0-9h100a4.5,4.5,0,0,1,0,9Z" fill="#d1d3d4"></path><path d="M123.74,179.2H56.5a.5.5,0,0,1-.5-.5.5.5,0,0,1,.5-.5h67.24a.5.5,0,0,1,.5.5A.5.5,0,0,1,123.74,179.2Z" fill="#d1d3d4"></path><path d="M113,191H56.5a.5.5,0,0,1-.5-.5.5.5,0,0,1,.5-.5H113a.5.5,0,0,1,.5.5A.51.51,0,0,1,113,191Z" fill="#d1d3d4"></path><rect x="56.5" y="206.5" width="72.69" height="14.58" rx="7.29" fill="#68e1fd"></rect><path d="M107.58,89.25H84.75a1,1,0,0,1,0-2h22.83a1,1,0,0,1,0,2Z" fill="#d1d3d4"></path><circle cx="64.12" cy="89.12" r="7.62" fill="#d1d3d4"></circle><path d="M234.57,156.87a9.54,9.54,0,0,0-1.09-5.14,38.33,38.33,0,0,1-2.31-3.25c-1-2.09-.29-4.54-.52-6.84a8.49,8.49,0,0,0-2.4-5.09c-1.2-1.21-2.74-2-3.88-3.3-1.88-2.08-2.42-5-3.49-7.58a18.87,18.87,0,0,0-7.5-8.82c2.05,4.11-2.61,9.34-.5,13.43.67,1.29,2,2.24,2.44,3.61,1.18,3.31-2.77,6.9-1.5,10.18.63,1.64,2.38,2.59,3.2,4.15,1.1,2.09.24,4.64.33,7,.12,3.26,2.11,6.18,4.47,8.44,1.47,1.42,3.11,2.63,4.7,3.91,1.9,1.52,2.7,3.12,4.37.67A21,21,0,0,0,234.57,156.87Z" fill="#231f20"></path><path d="M236.69,158.74c-.61-2.53-1-5.27,0-7.65,1.17-2.7,4.07-4.61,4.41-7.53.23-1.91-.75-3.84-.36-5.73s1.92-3.18,3.19-4.57a19.1,19.1,0,0,0,4.93-11.68,29.06,29.06,0,0,1,4.7,7.77c1,2.87,1,6.25-.68,8.77a7.56,7.56,0,0,0-1.19,1.95c-.58,1.85,1,3.59,1.84,5.36a6.16,6.16,0,0,1-.58,6.33c-1.67,2.08-4.89,2.89-5.71,5.43a12.57,12.57,0,0,0-.29,2.88,8.44,8.44,0,0,1-6.08,7.25c-2,.48-1.94-.3-2.29-2C238.08,163.12,237.23,161,236.69,158.74Z" fill="#231f20"></path><path d="M230.4,140.56c-1.4-4.85-2-9.92-3.44-14.76a80.64,80.64,0,0,0-4.6-11l6,2.54c1.93.81,4,1.77,4.93,3.66,1.58,3.28-1.26,7.49.4,10.74a27.33,27.33,0,0,0,2.39,3c1.77,2.49,1.5,5.91.52,8.81-.41,1.24-2.24,7.69-3.87,5.9-.65-.72-.71-3.39-1-4.37C231.36,143.56,230.84,142.08,230.4,140.56Z" fill="#231f20"></path><path d="M233.71,205.06c-1.19-7.94-5-35.9-5-36.19l1-.13c0,.28,3.8,28.24,5,36.17Z" fill="#231f20"></path><path d="M236.47,194.12l-.95-.32c1.3-3.86,1.45-8.05,1.62-12.48.21-5.61.43-11.4,3.13-16.56l.89.47c-2.6,5-2.81,10.63-3,16.13C238,185.67,237.81,190.12,236.47,194.12Z" fill="#231f20"></path><path d="M236.05,194.08c-.71-7.3-1.09-14.47-1.47-21.41-.45-8.25-.91-16.79-1.9-25.36l1-.11c1,8.6,1.46,17.15,1.91,25.41.37,6.93.76,14.1,1.46,21.37Z" fill="#231f20"></path><path d="M223.38,176.74h22.41L244.05,202a4.72,4.72,0,0,1-4.72,4.4h-9.49a4.73,4.73,0,0,1-4.72-4.4Z" fill="#fff"></path><path d="M239.33,206.91h-9.49a5.25,5.25,0,0,1-5.22-4.87l-1.74-25.27a.51.51,0,0,1,.13-.37.52.52,0,0,1,.37-.16h22.41a.5.5,0,0,1,.5.53L244.55,202A5.25,5.25,0,0,1,239.33,206.91Zm-15.42-29.67L225.62,202a4.24,4.24,0,0,0,4.22,3.94h9.49a4.24,4.24,0,0,0,4.22-3.94l1.71-24.73Z" fill="#231f20"></path></g></svg>