<svg xmlns="http://www.w3.org/2000/svg" viewBox="0 0 400 300" width="406" height="306" class="illustration styles_illustrationTablet__1DWOa"><g id="_489_world_wide_web_outline" data-name="#489_world_wide_web_outline"><path d="M92,206.27H308a0,0,0,0,1,0,0v6.26a9.62,9.62,0,0,1-9.62,9.62H101.64A9.62,9.62,0,0,1,92,212.53v-6.26A0,0,0,0,1,92,206.27Z" fill="#68e1fd"></path><path d="M298.36,223.15H101.64A10.62,10.62,0,0,1,91,212.53v-6.26a1,1,0,0,1,1-1H308a1,1,0,0,1,1,1v6.26A10.62,10.62,0,0,1,298.36,223.15ZM93,207.27v5.26a8.63,8.63,0,0,0,8.61,8.62H298.36a8.63,8.63,0,0,0,8.61-8.62v-5.26Z" fill="#093f68"></path><path d="M115.12,77.85H284.88a8.54,8.54,0,0,1,8.54,8.54V206.27a0,0,0,0,1,0,0H106.58a0,0,0,0,1,0,0V86.39A8.54,8.54,0,0,1,115.12,77.85Z" fill="#68e1fd"></path><path d="M293.42,207.27H106.58a1,1,0,0,1-1-1V86.39a9.55,9.55,0,0,1,9.54-9.54H284.88a9.55,9.55,0,0,1,9.54,9.54V206.27A1,1,0,0,1,293.42,207.27Zm-185.84-2H292.42V86.39a7.55,7.55,0,0,0-7.54-7.54H115.12a7.55,7.55,0,0,0-7.54,7.54Z" fill="#093f68"></path><rect x="114.49" y="87.58" width="171.01" height="109.63" rx="2.58" fill="#fff"></rect><path d="M282.93,198.2H117.07a3.57,3.57,0,0,1-3.57-3.58V90.16a3.57,3.57,0,0,1,3.57-3.58H282.93a3.57,3.57,0,0,1,3.57,3.58V194.62A3.57,3.57,0,0,1,282.93,198.2ZM117.07,88.58a1.57,1.57,0,0,0-1.57,1.58V194.62a1.57,1.57,0,0,0,1.57,1.58H282.93a1.57,1.57,0,0,0,1.57-1.58V90.16a1.57,1.57,0,0,0-1.57-1.58Z" fill="#093f68"></path><path d="M190.67,206.27h18.66a0,0,0,0,1,0,0v1.07a3.57,3.57,0,0,1-3.57,3.57H194.25a3.57,3.57,0,0,1-3.57-3.57v-1.07A0,0,0,0,1,190.67,206.27Z" fill="#68e1fd"></path><path d="M205.75,211.92h-11.5a4.58,4.58,0,0,1-4.58-4.58v-1.07a1,1,0,0,1,1-1h18.66a1,1,0,0,1,1,1v1.07A4.58,4.58,0,0,1,205.75,211.92Zm-14.08-4.65v.07a2.59,2.59,0,0,0,2.58,2.58h11.5a2.59,2.59,0,0,0,2.58-2.58v-.07Z" fill="#093f68"></path><circle cx="124.68" cy="95.45" r="3.22" fill="#f56132"></circle><path d="M124.68,99.67a4.22,4.22,0,1,1,4.22-4.22A4.22,4.22,0,0,1,124.68,99.67Zm0-6.44a2.22,2.22,0,1,0,2.22,2.22A2.21,2.21,0,0,0,124.68,93.23Z" fill="#093f68"></path><circle cx="134.22" cy="95.45" r="3.22" fill="#ffbc0e"></circle><path d="M134.22,99.67a4.22,4.22,0,1,1,4.23-4.22A4.23,4.23,0,0,1,134.22,99.67Zm0-6.44a2.22,2.22,0,1,0,2.23,2.22A2.22,2.22,0,0,0,134.22,93.23Z" fill="#093f68"></path><circle cx="143.77" cy="95.45" r="3.22" fill="#70cc40"></circle><path d="M143.77,99.67A4.22,4.22,0,1,1,148,95.45,4.23,4.23,0,0,1,143.77,99.67Zm0-6.44A2.22,2.22,0,1,0,146,95.45,2.22,2.22,0,0,0,143.77,93.23Z" fill="#093f68"></path><path d="M245.34,142.4A45.92,45.92,0,0,1,234.58,172c-.8,1-1.65,1.9-2.54,2.79a46.09,46.09,0,0,1-65.56,0c-.89-.89-1.73-1.82-2.53-2.79a46.06,46.06,0,0,1,0-59.22,37.37,37.37,0,0,1,2.53-2.8A46.07,46.07,0,0,1,232,110a37.5,37.5,0,0,1,2.54,2.8A45.88,45.88,0,0,1,245.34,142.4Z" fill="#fff"></path><path d="M199.26,189.48a46.78,46.78,0,0,1-33.49-14c-.91-.9-1.78-1.87-2.6-2.86a47.08,47.08,0,0,1,0-60.5c.81-1,1.68-1.94,2.59-2.85a47.07,47.07,0,0,1,67,0c.9.91,1.77,1.87,2.59,2.86a47.08,47.08,0,0,1,0,60.5c-.8,1-1.68,2-2.59,2.86A46.8,46.8,0,0,1,199.26,189.48Zm0-92.18a44.7,44.7,0,0,0-32,13.39c-.87.87-1.7,1.78-2.47,2.72a45.08,45.08,0,0,0,0,58c.78.94,1.61,1.86,2.48,2.72a45.09,45.09,0,0,0,64.14,0c.87-.87,1.7-1.79,2.48-2.73a45.08,45.08,0,0,0,0-57.94c-.78-1-1.61-1.86-2.47-2.73A44.71,44.71,0,0,0,199.26,97.3Z" fill="#093f68"></path><path d="M199.26,189.48a46.78,46.78,0,0,1-33.49-14c-.91-.9-1.78-1.87-2.6-2.86a1,1,0,0,1-.22-.74,1,1,0,0,1,.38-.68c1-.8,1.82-1.41,2.59-2,8.88-6.23,20.72-9.66,33.34-9.66s24.46,3.43,33.34,9.66c.78.55,1.58,1.16,2.6,2a1,1,0,0,1,.37.68,1,1,0,0,1-.22.74c-.81,1-1.69,2-2.6,2.87A46.8,46.8,0,0,1,199.26,189.48Zm-33.88-17.33c.58.66,1.18,1.31,1.81,1.93a45.09,45.09,0,0,0,64.14,0c.63-.63,1.23-1.28,1.81-1.94-.62-.48-1.16-.89-1.69-1.26-8.55-6-20-9.3-32.19-9.3s-23.64,3.3-32.18,9.3C166.55,171.26,166,171.67,165.38,172.15Z" fill="#093f68"></path><path d="M199.26,125.19c-12.6,0-24.44-3.43-33.35-9.67-.88-.61-1.75-1.28-2.58-2a1,1,0,0,1-.13-1.4c.81-1,1.68-2,2.59-2.86a47.07,47.07,0,0,1,67,0c.9.91,1.77,1.87,2.59,2.86a1,1,0,0,1-.13,1.4c-.83.7-1.7,1.37-2.58,2C223.71,121.76,211.86,125.19,199.26,125.19Zm-33.87-12.55c.54.44,1.1.85,1.66,1.24,8.58,6,20,9.31,32.21,9.31s23.63-3.31,32.21-9.31c.56-.39,1.12-.8,1.67-1.24-.59-.67-1.2-1.32-1.82-2a45.06,45.06,0,0,0-64.11,0C166.58,111.32,166,112,165.39,112.64Z" fill="#093f68"></path><path d="M199.25,189.48c-15.11,0-27.4-21.12-27.4-47.09s12.29-47.08,27.4-47.08,27.41,21.12,27.41,47.08S214.37,189.48,199.25,189.48Zm0-92.17c-14,0-25.4,20.22-25.4,45.08s11.39,45.09,25.4,45.09,25.41-20.23,25.41-45.09S213.26,97.31,199.25,97.31Z" fill="#093f68"></path><path d="M245.33,143.39H153.18a1,1,0,0,1,0-2h92.15a1,1,0,1,1,0,2Z" fill="#093f68"></path><path d="M199.25,189.48a1,1,0,0,1-1-1V96.31a1,1,0,0,1,2,0v92.17A1,1,0,0,1,199.25,189.48Z" fill="#093f68"></path><rect x="145.07" y="133.11" width="108.38" height="18.56" rx="5.63" fill="#68e1fd"></rect><path d="M247.82,152.67H150.69a6.63,6.63,0,0,1-6.62-6.62v-7.32a6.63,6.63,0,0,1,6.62-6.62h97.13a6.63,6.63,0,0,1,6.63,6.62v7.32A6.63,6.63,0,0,1,247.82,152.67Zm-97.13-18.56a4.62,4.62,0,0,0-4.62,4.62v7.32a4.62,4.62,0,0,0,4.62,4.62h97.13a4.63,4.63,0,0,0,4.63-4.62v-7.32a4.63,4.63,0,0,0-4.63-4.62Z" fill="#093f68"></path><path d="M178.81,137.87H181l1.45,5.8h0l1.89-5.8h1.85l1.88,5.95h0l1.52-5.95h2l-2.65,9h-1.77l-2-6.26h0l-2,6.26h-1.71Z" fill="#093f68"></path><path d="M192.85,137.87H195l1.44,5.8h0l1.89-5.8h1.85l1.87,5.95h0l1.52-5.95h2l-2.64,9h-1.77l-2-6.26h0l-2,6.26h-1.71Z" fill="#093f68"></path><path d="M206.89,137.87h2.17l1.44,5.8h0l1.89-5.8h1.85l1.87,5.95h0l1.52-5.95h2l-2.64,9h-1.77l-2-6.26h0l-2,6.26h-1.71Z" fill="#093f68"></path><polygon points="254.42 150.56 233.6 143.25 231.75 165.24 238.13 161.11 249.01 177.92 258.93 171.5 248.04 154.69 254.42 150.56" fill="#fff"></polygon><path d="M249,178.92a.75.75,0,0,1-.21,0,1,1,0,0,1-.63-.43l-10.34-16-5.54,3.59a1,1,0,0,1-1.06,0,1,1,0,0,1-.48-.94l1.85-22a1,1,0,0,1,.45-.76,1,1,0,0,1,.88-.1l20.82,7.31a1,1,0,0,1,.67.82,1,1,0,0,1-.45,1L249.43,155l10.34,16a1,1,0,0,1-.29,1.38l-9.92,6.42A1,1,0,0,1,249,178.92Zm-10.89-18.81a1,1,0,0,1,.85.46l10.34,16,8.24-5.33-10.35-16a1,1,0,0,1-.13-.75,1,1,0,0,1,.43-.63l4.67-3-17.68-6.21-1.57,18.67,4.66-3A1,1,0,0,1,238.12,160.11Z" fill="#093f68"></path><path d="M140.55,164.52H125.88a1,1,0,1,1,0-2h14.67a1,1,0,0,1,0,2Z" fill="#dfeaef"></path><path d="M148.69,174.28H125.88a1,1,0,1,1,0-2h22.81a1,1,0,0,1,0,2Z" fill="#dfeaef"></path><path d="M158.45,184H125.88a1,1,0,1,1,0-2h32.57a1,1,0,0,1,0,2Z" fill="#dfeaef"></path><path d="M274.26,103.33H255.68a1,1,0,0,1,0-2h18.58a1,1,0,0,1,0,2Z" fill="#dfeaef"></path><path d="M274.26,111.24H255.68a1,1,0,0,1,0-2h18.58a1,1,0,0,1,0,2Z" fill="#dfeaef"></path><path d="M274.26,184H260.47a1,1,0,0,1,0-2h13.79a1,1,0,0,1,0,2Z" fill="#dfeaef"></path></g></svg>